<svg aria-hidden="true" style="position: absolute; width: 0; height: 0; overflow: hidden;" version="1.1" xmlns="http://www.w3.org/2000/svg" xmlns:xlink="http://www.w3.org/1999/xlink">
<defs>
<symbol id="icon-arrow-go" viewBox="0 0 30 32">
<path fill="none" stroke-linejoin="round" stroke-linecap="round" stroke-miterlimit="4" stroke-width="2.1895" d="M4.632 16h16.842"></path>
<path fill="none" stroke-linejoin="round" stroke-linecap="round" stroke-miterlimit="4" stroke-width="2.1895" d="M15.158 7.158l8.842 8.842-8.842 8.842"></path>
</symbol>
<symbol id="icon-arrow-left" viewBox="0 0 17 32">
<path opacity="0.6" d="M16.309 0.842c0.24 0.265 0.431 0.58 0.561 0.927s0.197 0.718 0.197 1.094c0 0.375-0.067 0.747-0.197 1.094s-0.321 0.662-0.561 0.927l-10.056 11.12 10.056 11.12c0.485 0.536 0.757 1.263 0.757 2.020s-0.272 1.485-0.757 2.020c-0.485 0.536-1.142 0.837-1.827 0.837s-1.343-0.301-1.827-0.837l-11.896-13.154c-0.24-0.265-0.431-0.58-0.561-0.927s-0.197-0.718-0.197-1.094c0-0.375 0.067-0.747 0.197-1.094s0.321-0.662 0.561-0.927l11.896-13.154c0.985-1.089 2.644-1.089 3.654 0.029z"></path>
</symbol>
<symbol id="icon-arrow-right" viewBox="0 0 17 32">
<path opacity="0.73" d="M0.758 0.842c-0.24 0.265-0.431 0.58-0.561 0.927s-0.197 0.718-0.197 1.094c0 0.375 0.067 0.747 0.197 1.094s0.321 0.662 0.561 0.927l10.056 11.12-10.056 11.12c-0.485 0.536-0.757 1.263-0.757 2.020s0.272 1.485 0.757 2.020c0.485 0.536 1.142 0.837 1.827 0.837s1.343-0.301 1.827-0.837l11.896-13.154c0.24-0.265 0.431-0.58 0.561-0.927s0.197-0.718 0.197-1.094c0-0.375-0.067-0.747-0.197-1.094s-0.321-0.662-0.561-0.927l-11.896-13.154c-0.985-1.089-2.644-1.089-3.654 0.029z"></path>
</symbol>
<symbol id="icon-camera" viewBox="0 0 32 32">
<path stroke-linejoin="round" stroke-linecap="round" stroke-miterlimit="4" stroke-width="0.6957" d="M27.13 10.435v-4.182c0-0.737-0.292-1.443-0.812-1.965s-1.226-0.816-1.962-0.818l-4.182-0.013M27.13 18.783v4.174c0 0.738-0.293 1.446-0.815 1.968s-1.23 0.815-1.968 0.815h-4.174M11.826 3.457l-4.182 0.014c-0.737 0.002-1.442 0.296-1.962 0.818s-0.812 1.228-0.812 1.965v4.181M11.826 25.739h-4.174c-0.738 0-1.446-0.293-1.968-0.815s-0.815-1.23-0.815-1.968v-4.174"></path>
<path d="M15.913 17.12c0.571 0 1.056-0.2 1.455-0.599s0.599-0.885 0.599-1.455-0.2-1.056-0.599-1.455c-0.4-0.399-0.885-0.599-1.455-0.599s-1.056 0.2-1.455 0.599c-0.399 0.4-0.599 0.885-0.599 1.455s0.2 1.056 0.599 1.455c0.4 0.399 0.885 0.599 1.455 0.599zM12.261 18.717c-0.251 0-0.466-0.089-0.645-0.268s-0.268-0.394-0.268-0.645v-5.478c0-0.251 0.089-0.466 0.268-0.645s0.393-0.268 0.645-0.268h1.438l0.845-0.913h2.739l0.845 0.913h1.438c0.251 0 0.466 0.089 0.645 0.268s0.268 0.394 0.268 0.645v5.478c0 0.251-0.089 0.466-0.268 0.645s-0.394 0.268-0.645 0.268h-7.304z"></path>
</symbol>
<symbol id="icon-chevron-up" viewBox="0 0 32 32">
<path fill="none" stroke-linejoin="round" stroke-linecap="round" stroke-miterlimit="4" stroke-width="3.2" d="M8 12l8 8 8-8"></path>
</symbol>
<symbol id="icon-clock" viewBox="0 0 32 32">
<path stroke-linejoin="round" stroke-linecap="round" stroke-miterlimit="4" stroke-width="2.88" d="M16 29.333c7.364 0 13.333-5.97 13.333-13.333s-5.97-13.333-13.333-13.333c-7.364 0-13.333 5.97-13.333 13.333s5.97 13.333 13.333 13.333z"></path>
<path stroke-linejoin="round" stroke-linecap="round" stroke-miterlimit="4" stroke-width="2.88" d="M16 8v8l5.333 2.667"></path>
</symbol>
<symbol id="icon-edit" viewBox="0 0 30 32">
<path fill="none" stroke-linejoin="round" stroke-linecap="round" stroke-miterlimit="4" stroke-width="2.7733" d="M3.469 24.603c0.098-0.882 0.147-1.323 0.28-1.735 0.118-0.366 0.286-0.714 0.497-1.035 0.239-0.362 0.552-0.675 1.18-1.303l15.729-15.729c1.375-1.375 3.603-1.375 4.978 0v0c1.375 1.375 1.375 3.603 0 4.978l-15.729 15.729c-0.628 0.628-0.941 0.941-1.303 1.18-0.321 0.212-0.669 0.379-1.035 0.497-0.412 0.134-0.853 0.183-1.735 0.281l-3.22 0.358 0.358-3.22z"></path>
</symbol>
<symbol id="icon-exit" viewBox="0 0 32 32">
<path fill="none" stroke-linejoin="round" stroke-linecap="round" stroke-miterlimit="4" stroke-width="2.6667" d="M25 7l-18 18"></path>
<path fill="none" stroke-linejoin="round" stroke-linecap="round" stroke-miterlimit="4" stroke-width="2.6667" d="M25 25l-18-18"></path>
</symbol>
<symbol id="icon-facebook" viewBox="0 0 30 32">
<path d="M30.476 16.092c0-8.466-6.823-15.33-15.238-15.33s-15.238 6.864-15.238 15.33c0 7.651 5.571 13.994 12.857 15.145v-10.712h-3.87v-4.433h3.87v-3.377c0-3.841 2.276-5.965 5.756-5.965 1.667 0 3.412 0.3 3.412 0.3v3.773h-1.922c-1.892 0-2.484 1.181-2.484 2.395v2.874h4.226l-0.675 4.433h-3.55v10.713c7.286-1.15 12.857-7.493 12.857-15.146z"></path>
</symbol>
<symbol id="icon-form-accept" viewBox="0 0 32 32">
<path d="M0 16c0-8.838 7.162-16 16-16s16 7.162 16 16c0 8.837-7.163 16-16 16s-16-7.163-16-16zM23.237 13.238c0.681-0.681 0.681-1.794 0-2.475s-1.794-0.681-2.475 0l-6.763 6.762-2.763-2.762c-0.681-0.681-1.794-0.681-2.475 0s-0.681 1.794 0 2.475l4 4c0.681 0.681 1.794 0.681 2.475 0l8-8z"></path>
</symbol>
<symbol id="icon-form-error" viewBox="0 0 32 32">
<path d="M0 16c0-8.838 7.162-16 16-16s16 7.162 16 16c0 8.837-7.163 16-16 16s-16-7.163-16-16zM10.938 13.006l2.944 2.938-2.944 2.994c-0.581 0.588-0.581 1.538 0 2.069 0.588 0.637 1.537 0.637 2.069 0l2.938-2.888 2.994 2.888c0.588 0.637 1.538 0.637 2.069 0 0.637-0.531 0.637-1.481 0-2.069l-2.888-2.994 2.888-2.938c0.637-0.531 0.637-1.481 0-2.069-0.531-0.581-1.481-0.581-2.069 0l-2.994 2.944-2.938-2.944c-0.531-0.581-1.481-0.581-2.069 0-0.581 0.588-0.581 1.537 0 2.069z"></path>
</symbol>
<symbol id="icon-form-warning" viewBox="0 0 32 32">
<path d="M16 0c-8.838 0-16 7.162-16 16s7.162 16 16 16c8.837 0 16-7.163 16-16s-7.163-16-16-16zM14.5 9.5c0-0.825 0.675-1.5 1.5-1.5s1.5 0.672 1.5 1.5v8c0 0.828-0.672 1.5-1.5 1.5s-1.5-0.669-1.5-1.5v-8zM16 25c-1.085 0-1.965-0.88-1.965-1.965s0.879-1.965 1.965-1.965c1.086 0 1.965 0.88 1.965 1.965-0.002 1.084-0.877 1.965-1.965 1.965z"></path>
</symbol>
<symbol id="icon-hamburger" viewBox="0 0 32 32">
<path stroke-linejoin="round" stroke-linecap="round" stroke-miterlimit="4" stroke-width="2.5" d="M4 16h24M4 8h24M4 24h16"></path>
</symbol>
<symbol id="icon-instagram" viewBox="0 0 30 32">
<path d="M21.587 3.301c1.683 0.005 3.295 0.676 4.484 1.865s1.86 2.802 1.865 4.484v12.698c-0.005 1.683-0.676 3.295-1.865 4.484s-2.802 1.86-4.484 1.865h-12.698c-1.682-0.005-3.295-0.676-4.484-1.865s-1.86-2.802-1.865-4.484v-12.698c0.005-1.682 0.676-3.295 1.865-4.484s2.802-1.86 4.484-1.865h12.698zM21.587 0.762h-12.698c-4.889 0-8.889 4-8.889 8.889v12.698c0 4.889 4 8.889 8.889 8.889h12.698c4.889 0 8.889-4 8.889-8.889v-12.698c0-4.889-4-8.889-8.889-8.889z"></path>
<path d="M23.492 9.654c-0.377 0-0.745-0.112-1.058-0.321s-0.557-0.507-0.702-0.855-0.182-0.731-0.108-1.101c0.074-0.369 0.255-0.709 0.521-0.975s0.606-0.448 0.975-0.521c0.369-0.074 0.752-0.036 1.101 0.108s0.645 0.388 0.855 0.702c0.209 0.313 0.321 0.681 0.321 1.058 0.001 0.25-0.048 0.498-0.144 0.73s-0.236 0.442-0.413 0.619c-0.177 0.177-0.387 0.317-0.619 0.413s-0.479 0.144-0.73 0.144zM15.238 10.923c1.005 0 1.987 0.298 2.822 0.856s1.486 1.351 1.871 2.28c0.384 0.928 0.485 1.95 0.289 2.935s-0.68 1.89-1.39 2.601-1.615 1.194-2.601 1.39c-0.985 0.196-2.007 0.095-2.935-0.289s-1.722-1.036-2.28-1.871c-0.558-0.835-0.856-1.817-0.856-2.822 0.001-1.347 0.537-2.638 1.489-3.59s2.243-1.488 3.59-1.489zM15.238 8.383c-1.507 0-2.98 0.447-4.233 1.284s-2.229 2.027-2.806 3.419c-0.577 1.392-0.728 2.924-0.434 4.402s1.020 2.835 2.085 3.901c1.066 1.066 2.423 1.791 3.901 2.085s3.010 0.143 4.402-0.434c1.392-0.577 2.582-1.553 3.419-2.806s1.284-2.726 1.284-4.233c0-2.021-0.803-3.959-2.232-5.388s-3.367-2.232-5.387-2.232z"></path>
</symbol>
<symbol id="icon-logo" viewBox="0 0 30 30">
<path d="M3 3.10254V8.55616V8.66616V8.55616C3 10.1133 3.67941 11.492 4.73282 12.3842C5.24788 12.8205 5.58824 13.4097 5.58824 14.0636V23.1668C5.58824 24.1788 6.45788 25.0001 7.52941 25.0001C8.60094 25.0001 9.47059 24.1788 9.47059 23.1668V14.0636C9.47059 13.4097 9.81094 12.8205 10.326 12.3842C11.3794 11.492 12.0588 10.1133 12.0588 8.55616V3.10254V8.55616" stroke-width="2" stroke-linecap="round" stroke-linejoin="round"/>
<path d="M7.5293 9.11118V3" stroke-width="2" stroke-linecap="round" stroke-linejoin="round"/>
<path d="M24.9999 4.28523C24.9999 3.61055 24.4201 3.06299 23.7058 3.06299H22.4116C20.2673 3.06299 18.5293 4.70445 18.5293 6.7297V14.0631C18.5293 15.6569 19.6125 17.0002 21.1175 17.5049V23.1663C21.1175 24.1784 21.9872 24.9997 23.0587 24.9997C24.1302 24.9997 24.9999 24.1784 24.9999 23.1663V17.7298V4.28523Z" stroke-width="2" stroke-linecap="round" stroke-linejoin="round"/>
</symbol>
<symbol id="icon-mail" viewBox="0 0 31 32">
<path fill="none" opacity="0.8" stroke-linejoin="round" stroke-linecap="round" stroke-miterlimit="4" stroke-width="2.56" d="M2.56 9.6l10.451 7.316c0.846 0.593 1.27 0.889 1.73 1.003 0.407 0.101 0.832 0.101 1.238 0 0.46-0.115 0.883-0.411 1.73-1.003l10.451-7.316M8.704 26.24h13.312c2.151 0 3.226 0 4.047-0.419 0.723-0.368 1.31-0.956 1.678-1.678 0.419-0.822 0.419-1.897 0.419-4.047v-8.192c0-2.151 0-3.226-0.419-4.047-0.368-0.723-0.956-1.31-1.678-1.678-0.822-0.419-1.897-0.419-4.047-0.419h-13.312c-2.151 0-3.226 0-4.047 0.419-0.723 0.368-1.31 0.956-1.678 1.678-0.419 0.821-0.419 1.897-0.419 4.047v8.192c0 2.151 0 3.226 0.419 4.047 0.368 0.723 0.956 1.31 1.678 1.678 0.821 0.419 1.897 0.419 4.047 0.419z"></path>
</symbol>
<symbol id="icon-minus" viewBox="0 0 32 32">
<path fill="none" stroke-linejoin="round" stroke-linecap="round" stroke-miterlimit="4" stroke-width="3" d="M5 16h22"></path>
</symbol>
<symbol id="icon-password" viewBox="0 0 31 32">
<path fill="none" opacity="0.8" stroke-linejoin="round" stroke-linecap="round" stroke-miterlimit="4" stroke-width="2.56" d="M21.76 14.72v-3.84c0-3.535-2.865-6.4-6.4-6.4s-6.4 2.865-6.4 6.4v3.84M9.984 27.52h10.752c2.151 0 3.226 0 4.047-0.419 0.723-0.368 1.31-0.956 1.678-1.678 0.419-0.822 0.419-1.897 0.419-4.047v-0.512c0-2.151 0-3.226-0.419-4.047-0.368-0.723-0.956-1.31-1.678-1.678-0.822-0.419-1.897-0.419-4.047-0.419h-10.752c-2.151 0-3.226 0-4.047 0.419-0.723 0.368-1.31 0.956-1.678 1.678-0.419 0.822-0.419 1.897-0.419 4.047v0.512c0 2.151 0 3.226 0.419 4.047 0.368 0.723 0.956 1.31 1.678 1.678 0.821 0.419 1.897 0.419 4.047 0.419z"></path>
</symbol>
<symbol id="icon-plus" viewBox="0 0 32 32">
<path fill="none" stroke-linejoin="round" stroke-linecap="round" stroke-miterlimit="4" stroke-width="3" d="M5 16h22"></path>
<path fill="none" stroke-linejoin="round" stroke-linecap="round" stroke-miterlimit="4" stroke-width="3" d="M16 5v22"></path>
</symbol>
<symbol id="icon-search" viewBox="0 0 32 32">
<path stroke-linejoin="round" stroke-linecap="round" stroke-miterlimit="4" stroke-width="2.6667" d="M14.667 25.333c5.891 0 10.667-4.776 10.667-10.667s-4.776-10.667-10.667-10.667c-5.891 0-10.667 4.776-10.667 10.667s4.776 10.667 10.667 10.667z"></path>
<path stroke-linejoin="round" stroke-linecap="round" stroke-miterlimit="4" stroke-width="2.6667" d="M28.001 28l-5.8-5.8"></path>
</symbol>
<symbol id="icon-trash" viewBox="0 0 32 32">
<path fill="none" stroke-linejoin="round" stroke-linecap="round" stroke-miterlimit="4" stroke-width="2.6667" d="M21.333 8v-1.067c0-1.493 0-2.24-0.291-2.811-0.256-0.502-0.664-0.91-1.165-1.165-0.57-0.291-1.317-0.291-2.811-0.291h-2.133c-1.493 0-2.24 0-2.811 0.291-0.502 0.256-0.91 0.664-1.165 1.165-0.291 0.57-0.291 1.317-0.291 2.811v1.067M13.333 15.333v6.667M18.667 15.333v6.667M4 8h24M25.333 8v14.933c0 2.24 0 3.36-0.436 4.216-0.383 0.753-0.995 1.365-1.748 1.748-0.856 0.436-1.976 0.436-4.216 0.436h-5.867c-2.24 0-3.36 0-4.216-0.436-0.753-0.383-1.365-0.995-1.748-1.748-0.436-0.856-0.436-1.976-0.436-4.216v-14.933"></path>
</symbol>
<symbol id="icon-twitter" viewBox="0 0 38 32">
<path d="M37.647 4.51c-1.412 0.614-2.906 1.018-4.435 1.2 1.607-0.941 2.815-2.436 3.398-4.204-1.519 0.888-3.179 1.512-4.907 1.843-0.728-0.763-1.603-1.369-2.573-1.783s-2.013-0.626-3.067-0.624c-4.268 0-7.722 3.404-7.722 7.6-0.003 0.584 0.064 1.166 0.199 1.733-3.061-0.143-6.058-0.924-8.799-2.292s-5.167-3.293-7.122-5.653c-0.686 1.156-1.049 2.475-1.050 3.82 0 2.635 1.375 4.965 3.451 6.329-1.23-0.029-2.435-0.355-3.512-0.949v0.094c0 3.686 2.667 6.753 6.196 7.451-0.664 0.177-1.348 0.267-2.034 0.267-0.487 0.001-0.974-0.047-1.452-0.141 0.981 3.019 3.837 5.216 7.22 5.278-2.749 2.118-6.123 3.263-9.594 3.255-0.616-0.001-1.231-0.038-1.843-0.11 3.53 2.254 7.634 3.447 11.823 3.435 14.224 0 21.995-11.584 21.995-21.631 0-0.329-0.008-0.659-0.024-0.98 1.508-1.073 2.813-2.406 3.853-3.937z"></path>
</symbol>
<symbol id="icon-user" viewBox="0 0 31 32">
<path fill="none" opacity="0.8" stroke-linejoin="round" stroke-linecap="round" stroke-miterlimit="4" stroke-width="2.56" d="M25.6 27.52c0-1.786 0-2.679-0.22-3.406-0.496-1.636-1.777-2.917-3.413-3.413-0.727-0.22-1.62-0.22-3.406-0.22h-6.4c-1.786 0-2.679 0-3.406 0.22-1.636 0.496-2.917 1.777-3.413 3.413-0.22 0.727-0.22 1.62-0.22 3.406M21.12 10.24c0 3.181-2.579 5.76-5.76 5.76s-5.76-2.579-5.76-5.76c0-3.181 2.579-5.76 5.76-5.76s5.76 2.579 5.76 5.76z"></path>
</symbol>
<symbol id="icon-youtube" viewBox="0 0 43 32">
<path d="M42.393 7.066c0-3.75-2.759-6.766-6.167-6.766-4.617-0.216-9.326-0.299-14.138-0.299h-1.5c-4.801 0-9.518 0.083-14.135 0.3-3.4 0-6.159 3.033-6.159 6.783-0.208 2.966-0.297 5.932-0.292 8.899-0.008 2.967 0.086 5.936 0.283 8.908 0 3.75 2.759 6.791 6.159 6.791 4.851 0.225 9.826 0.325 14.885 0.317 5.067 0.017 10.029-0.089 14.885-0.317 3.409 0 6.167-3.042 6.167-6.791 0.2-2.975 0.292-5.942 0.284-8.916 0.019-2.967-0.072-5.936-0.272-8.908zM17.253 24.157v-16.375l12.085 8.183-12.085 8.191z"></path>
</symbol>
</defs>
</svg>
